<svg xmlns="http://www.w3.org/2000/svg" viewBox="0 0 1600 1000" role="img" aria-label="Hardware security and FPGA research illustration">
  <defs>
    <linearGradient id="bg" x1="0" y1="0" x2="1" y2="1">
      <stop offset="0" stop-color="#0b2f36"/>
      <stop offset="0.42" stop-color="#174c4f"/>
      <stop offset="1" stop-color="#8b4a2c"/>
    </linearGradient>
    <linearGradient id="chip" x1="0" y1="0" x2="1" y2="1">
      <stop offset="0" stop-color="#dceff0" stop-opacity="0.92"/>
      <stop offset="1" stop-color="#8fc8c8" stop-opacity="0.82"/>
    </linearGradient>
    <linearGradient id="fabric" x1="0" y1="0" x2="1" y2="1">
      <stop offset="0" stop-color="#f7c59b" stop-opacity="0.92"/>
      <stop offset="1" stop-color="#f08f5f" stop-opacity="0.72"/>
    </linearGradient>
    <pattern id="grid" width="80" height="80" patternUnits="userSpaceOnUse">
      <path d="M80 0H0v80" fill="none" stroke="#ffffff" stroke-opacity="0.07" stroke-width="2"/>
    </pattern>
    <pattern id="fabric-cells" width="54" height="54" patternUnits="userSpaceOnUse">
      <rect x="10" y="10" width="22" height="22" rx="4" fill="#ffffff" fill-opacity="0.16"/>
      <path d="M32 21h13M21 32v13" stroke="#ffffff" stroke-opacity="0.26" stroke-width="3" stroke-linecap="round"/>
    </pattern>
    <filter id="glow" x="-20%" y="-20%" width="140%" height="140%">
      <feGaussianBlur stdDeviation="6" result="blur"/>
      <feMerge>
        <feMergeNode in="blur"/>
        <feMergeNode in="SourceGraphic"/>
      </feMerge>
    </filter>
  </defs>

  <rect width="1600" height="1000" fill="url(#bg)"/>
  <rect width="1600" height="1000" fill="url(#grid)"/>
  <path d="M0 740C190 690 315 718 475 760c206 54 340 77 552 14 196-58 349-61 573 10v216H0Z" fill="#061d23" fill-opacity="0.24"/>

  <g fill="none" stroke="#dff5f5" stroke-opacity="0.32" stroke-width="8" stroke-linecap="round" stroke-linejoin="round">
    <path d="M185 225h185c56 0 73 52 124 52h98"/>
    <path d="M186 332h160c54 0 83 64 140 64h93"/>
    <path d="M172 444h216c72 0 83-88 154-88h83"/>
    <path d="M971 225h174c54 0 64 54 116 54h168"/>
    <path d="M972 355h210c71 0 75 82 147 82h110"/>
    <path d="M964 492h134c55 0 88-64 146-64h194"/>
    <path d="M782 646v126c0 47-37 71-37 116"/>
    <path d="M655 643v94c0 54-58 72-58 127"/>
    <path d="M882 628v90c0 58 65 77 65 135"/>
  </g>

  <g filter="url(#glow)">
    <rect x="570" y="185" width="430" height="430" rx="42" fill="#092a31" stroke="#dff5f5" stroke-opacity="0.56" stroke-width="10"/>
    <rect x="620" y="235" width="330" height="330" rx="26" fill="url(#fabric)"/>
    <rect x="620" y="235" width="330" height="330" rx="26" fill="url(#fabric-cells)"/>
    <path d="M662 302h246M662 367h246M662 432h246M662 497h246M704 262v264M769 262v264M834 262v264M899 262v264" stroke="#0b2f36" stroke-opacity="0.28" stroke-width="5"/>
    <g fill="#dff5f5">
      <rect x="617" y="126" width="24" height="54" rx="4"/>
      <rect x="677" y="126" width="24" height="54" rx="4"/>
      <rect x="737" y="126" width="24" height="54" rx="4"/>
      <rect x="797" y="126" width="24" height="54" rx="4"/>
      <rect x="857" y="126" width="24" height="54" rx="4"/>
      <rect x="917" y="126" width="24" height="54" rx="4"/>
      <rect x="617" y="620" width="24" height="54" rx="4"/>
      <rect x="677" y="620" width="24" height="54" rx="4"/>
      <rect x="737" y="620" width="24" height="54" rx="4"/>
      <rect x="797" y="620" width="24" height="54" rx="4"/>
      <rect x="857" y="620" width="24" height="54" rx="4"/>
      <rect x="917" y="620" width="24" height="54" rx="4"/>
      <rect x="511" y="232" width="54" height="24" rx="4"/>
      <rect x="511" y="292" width="54" height="24" rx="4"/>
      <rect x="511" y="352" width="54" height="24" rx="4"/>
      <rect x="511" y="412" width="54" height="24" rx="4"/>
      <rect x="511" y="472" width="54" height="24" rx="4"/>
      <rect x="511" y="532" width="54" height="24" rx="4"/>
      <rect x="1005" y="232" width="54" height="24" rx="4"/>
      <rect x="1005" y="292" width="54" height="24" rx="4"/>
      <rect x="1005" y="352" width="54" height="24" rx="4"/>
      <rect x="1005" y="412" width="54" height="24" rx="4"/>
      <rect x="1005" y="472" width="54" height="24" rx="4"/>
      <rect x="1005" y="532" width="54" height="24" rx="4"/>
    </g>
  </g>

  <g transform="translate(1125 145)">
    <rect width="260" height="160" rx="22" fill="#ffffff" fill-opacity="0.12" stroke="#dff5f5" stroke-opacity="0.45" stroke-width="4"/>
    <path d="M78 78c0-34 24-58 54-58s54 24 54 58" fill="none" stroke="#f7c59b" stroke-width="14" stroke-linecap="round"/>
    <rect x="57" y="72" width="150" height="70" rx="12" fill="#f7c59b" fill-opacity="0.86"/>
    <circle cx="132" cy="105" r="12" fill="#0b2f36"/>
    <path d="M132 116v16" stroke="#0b2f36" stroke-width="8" stroke-linecap="round"/>
  </g>

  <g transform="translate(1160 405)" fill="none" stroke-linecap="round" stroke-linejoin="round">
    <rect width="270" height="150" rx="20" fill="#ffffff" fill-opacity="0.11" stroke="#dff5f5" stroke-opacity="0.38" stroke-width="4"/>
    <path d="M28 102c22-72 45-73 70 0s45 72 67 0 48-70 77 0" stroke="#f7c59b" stroke-width="9"/>
    <path d="M28 55h214" stroke="#dff5f5" stroke-opacity="0.28" stroke-width="4"/>
    <path d="M28 96h214" stroke="#dff5f5" stroke-opacity="0.18" stroke-width="4"/>
  </g>

  <g transform="translate(250 585)">
    <rect width="320" height="165" rx="22" fill="#ffffff" fill-opacity="0.11" stroke="#dff5f5" stroke-opacity="0.36" stroke-width="4"/>
    <g fill="url(#chip)">
      <rect x="40" y="42" width="52" height="52" rx="8"/>
      <rect x="118" y="42" width="52" height="52" rx="8"/>
      <rect x="196" y="42" width="52" height="52" rx="8"/>
      <rect x="79" y="103" width="52" height="52" rx="8"/>
      <rect x="157" y="103" width="52" height="52" rx="8"/>
      <rect x="235" y="103" width="52" height="52" rx="8"/>
    </g>
    <path d="M66 42V16M144 42V16M222 42V16M105 155v28M183 155v28M261 155v28" stroke="#dff5f5" stroke-opacity="0.45" stroke-width="5" stroke-linecap="round"/>
  </g>

  <g transform="translate(250 155)">
    <rect width="235" height="128" rx="20" fill="#ffffff" fill-opacity="0.10" stroke="#dff5f5" stroke-opacity="0.34" stroke-width="4"/>
    <path d="M45 82c34-58 70-58 104 0 19 31 34 32 56 3" fill="none" stroke="#f7c59b" stroke-width="9" stroke-linecap="round"/>
    <path d="M48 43h138M48 62h92M48 101h148" stroke="#dff5f5" stroke-opacity="0.25" stroke-width="5" stroke-linecap="round"/>
  </g>

  <g fill="#dff5f5" fill-opacity="0.9">
    <circle cx="185" cy="225" r="12"/>
    <circle cx="186" cy="332" r="12"/>
    <circle cx="172" cy="444" r="12"/>
    <circle cx="1429" cy="279" r="12"/>
    <circle cx="1439" cy="437" r="12"/>
    <circle cx="1438" cy="428" r="12"/>
    <circle cx="745" cy="888" r="12"/>
    <circle cx="597" cy="864" r="12"/>
    <circle cx="947" cy="853" r="12"/>
  </g>
</svg>
